<mxfile host="app.diagrams.net" modified="2023-05-03T01:00:11.911Z" agent="Mozilla/5.0 (Macintosh; Intel Mac OS X 10_15_7) AppleWebKit/537.36 (KHTML, like Gecko) Chrome/112.0.0.0 Safari/537.36" etag="t2lkLtY_tPSnv1wmqxqx" version="21.2.6" type="github">
  <diagram name="Page-1" id="vlGfOXVVYHZFYoVlO1_Y">
    <mxGraphModel dx="782" dy="752" grid="1" gridSize="10" guides="1" tooltips="1" connect="1" arrows="1" fold="1" page="1" pageScale="1" pageWidth="850" pageHeight="1100" math="0" shadow="0">
      <root>
        <mxCell id="0" />
        <mxCell id="1" parent="0" />
        <mxCell id="Ky8GXkK56ikTTdRDj4KF-2" value="" style="rounded=0;whiteSpace=wrap;html=1;sketch=1;hachureGap=4;jiggle=2;curveFitting=1;fontFamily=Architects Daughter;fontSource=https%3A%2F%2Ffonts.googleapis.com%2Fcss%3Ffamily%3DArchitects%2BDaughter;fontSize=20;" vertex="1" parent="1">
          <mxGeometry x="40" y="40" width="750" height="470" as="geometry" />
        </mxCell>
        <mxCell id="Ky8GXkK56ikTTdRDj4KF-4" value="" style="verticalLabelPosition=bottom;sketch=0;aspect=fixed;html=1;verticalAlign=top;strokeColor=none;align=center;outlineConnect=0;shape=mxgraph.citrix.cloud;hachureGap=4;jiggle=2;curveFitting=1;fontFamily=Architects Daughter;fontSource=https%3A%2F%2Ffonts.googleapis.com%2Fcss%3Ffamily%3DArchitects%2BDaughter;fontSize=20;" vertex="1" parent="1">
          <mxGeometry x="40" y="40" width="59.11" height="38.58" as="geometry" />
        </mxCell>
        <mxCell id="Ky8GXkK56ikTTdRDj4KF-3" value="" style="shape=image;verticalLabelPosition=bottom;verticalAlign=top;imageAspect=0;aspect=fixed;image=data:image/svg+xml,PHN2ZyB4bWxucz0iaHR0cDovL3d3dy53My5vcmcvMjAwMC9zdmciIHZpZXdCb3g9IjAgMCAxNiAxNiI+PHBhdGggZmlsbD0iIzAwYWJlYyIgZD0iTTMuNjUgMTQuMkgxNkw5LjM1IDIuNjggNy4zMyA4LjI0bDMuODggNC42My03LjU2IDEuMzN6TTguODIgMS44TDQuMDcgNS43OSAwIDEyLjg0aDMuNjd2LjAxTDguODIgMS44eiIvPjwvc3ZnPg==;sketch=1;hachureGap=4;jiggle=2;curveFitting=1;fontFamily=Architects Daughter;fontSource=https%3A%2F%2Ffonts.googleapis.com%2Fcss%3Ffamily%3DArchitects%2BDaughter;fontSize=20;" vertex="1" parent="1">
          <mxGeometry x="60" y="40" width="28.58" height="28.58" as="geometry" />
        </mxCell>
        <mxCell id="Ky8GXkK56ikTTdRDj4KF-5" value="" style="rounded=0;whiteSpace=wrap;html=1;sketch=1;hachureGap=4;jiggle=2;curveFitting=1;fontFamily=Architects Daughter;fontSource=https%3A%2F%2Ffonts.googleapis.com%2Fcss%3Ffamily%3DArchitects%2BDaughter;fontSize=20;dashed=1;fillStyle=cross-hatch;shadow=0;glass=0;fillColor=none;fontColor=#333333;strokeColor=#666666;" vertex="1" parent="1">
          <mxGeometry x="70" y="78.58" width="690" height="401.42" as="geometry" />
        </mxCell>
        <mxCell id="Ky8GXkK56ikTTdRDj4KF-6" value="&lt;span style=&quot;background-color: rgb(169, 196, 235);&quot;&gt;&lt;font color=&quot;#000000&quot;&gt;Private subnet&lt;/font&gt;&lt;/span&gt;" style="points=[[0,0],[0.25,0],[0.5,0],[0.75,0],[1,0],[1,0.25],[1,0.5],[1,0.75],[1,1],[0.75,1],[0.5,1],[0.25,1],[0,1],[0,0.75],[0,0.5],[0,0.25]];outlineConnect=0;html=1;whiteSpace=wrap;fontSize=12;fontStyle=0;container=1;pointerEvents=0;collapsible=0;recursiveResize=0;shape=mxgraph.aws4.group;grIcon=mxgraph.aws4.group_security_group;grStroke=0;strokeColor=#6c8ebf;fillColor=#7EA6E0;verticalAlign=top;align=left;spacingLeft=30;dashed=0;sketch=1;hachureGap=4;jiggle=2;curveFitting=1;fontFamily=Architects Daughter;fontSource=https%3A%2F%2Ffonts.googleapis.com%2Fcss%3Ffamily%3DArchitects%2BDaughter;fillStyle=cross-hatch;gradientColor=none;" vertex="1" parent="1">
          <mxGeometry x="520" y="90" width="225" height="328" as="geometry" />
        </mxCell>
        <mxCell id="Ky8GXkK56ikTTdRDj4KF-9" value="" style="image;aspect=fixed;html=1;points=[];align=center;fontSize=12;image=img/lib/azure2/networking/Network_Security_Groups.svg;sketch=1;hachureGap=4;jiggle=2;curveFitting=1;fontFamily=Architects Daughter;fontSource=https%3A%2F%2Ffonts.googleapis.com%2Fcss%3Ffamily%3DArchitects%2BDaughter;" vertex="1" parent="Ky8GXkK56ikTTdRDj4KF-6">
          <mxGeometry x="-20" y="290" width="39.53" height="48" as="geometry" />
        </mxCell>
        <mxCell id="Ky8GXkK56ikTTdRDj4KF-12" value="" style="image;sketch=0;aspect=fixed;html=1;points=[];align=center;fontSize=12;image=img/lib/mscae/VM_Linux.svg;hachureGap=4;jiggle=2;curveFitting=1;fontFamily=Architects Daughter;fontSource=https%3A%2F%2Ffonts.googleapis.com%2Fcss%3Ffamily%3DArchitects%2BDaughter;" vertex="1" parent="Ky8GXkK56ikTTdRDj4KF-6">
          <mxGeometry x="30" y="40" width="50" height="46" as="geometry" />
        </mxCell>
        <mxCell id="Ky8GXkK56ikTTdRDj4KF-7" value="&lt;font color=&quot;#010300&quot;&gt;&lt;b style=&quot;background-color: rgb(154, 199, 191);&quot;&gt;Public subnet&lt;/b&gt;&lt;/font&gt;" style="points=[[0,0],[0.25,0],[0.5,0],[0.75,0],[1,0],[1,0.25],[1,0.5],[1,0.75],[1,1],[0.75,1],[0.5,1],[0.25,1],[0,1],[0,0.75],[0,0.5],[0,0.25]];outlineConnect=0;gradientColor=none;html=1;whiteSpace=wrap;fontSize=12;fontStyle=0;container=1;pointerEvents=0;collapsible=0;recursiveResize=0;shape=mxgraph.aws4.group;grIcon=mxgraph.aws4.group_security_group;grStroke=0;strokeColor=#248814;fillColor=#97D077;verticalAlign=top;align=left;spacingLeft=30;fontColor=#248814;dashed=0;sketch=1;hachureGap=4;jiggle=2;curveFitting=1;fontFamily=Architects Daughter;fontSource=https%3A%2F%2Ffonts.googleapis.com%2Fcss%3Ffamily%3DArchitects%2BDaughter;fillStyle=cross-hatch;" vertex="1" parent="1">
          <mxGeometry x="200" y="90" width="280" height="330" as="geometry" />
        </mxCell>
        <mxCell id="Ky8GXkK56ikTTdRDj4KF-13" value="" style="rounded=0;whiteSpace=wrap;html=1;sketch=1;hachureGap=4;jiggle=2;curveFitting=1;fontFamily=Architects Daughter;fontSource=https%3A%2F%2Ffonts.googleapis.com%2Fcss%3Ffamily%3DArchitects%2BDaughter;fontSize=20;fillColor=none;" vertex="1" parent="Ky8GXkK56ikTTdRDj4KF-7">
          <mxGeometry x="40" y="70" width="190" height="180" as="geometry" />
        </mxCell>
        <mxCell id="Ky8GXkK56ikTTdRDj4KF-11" value="" style="image;aspect=fixed;perimeter=ellipsePerimeter;html=1;align=center;shadow=0;dashed=0;spacingTop=3;image=img/lib/active_directory/windows_server_2.svg;sketch=1;hachureGap=4;jiggle=2;curveFitting=1;fontFamily=Architects Daughter;fontSource=https%3A%2F%2Ffonts.googleapis.com%2Fcss%3Ffamily%3DArchitects%2BDaughter;fontSize=20;" vertex="1" parent="Ky8GXkK56ikTTdRDj4KF-7">
          <mxGeometry x="30" y="50" width="40" height="50" as="geometry" />
        </mxCell>
        <mxCell id="Ky8GXkK56ikTTdRDj4KF-14" value="" style="shape=image;verticalLabelPosition=bottom;verticalAlign=top;imageAspect=0;image=data:image/jpeg,/9j/4AAQSkZJRgABAQAAAQABAAD//gA7Q1JFQVRPUjogZ2QtanBlZyB2MS4wICh1c2luZyBJSkcgSlBFRyB2NjIpLCBxdWFsaXR5ID0gODAK/9sAQwAGBAUGBQQGBgUGBwcGCAoQCgoJCQoUDg8MEBcUGBgXFBYWGh0lHxobIxwWFiAsICMmJykqKRkfLTAtKDAlKCko/9sAQwEHBwcKCAoTCgoTKBoWGigoKCgoKCgoKCgoKCgoKCgoKCgoKCgoKCgoKCgoKCgoKCgoKCgoKCgoKCgoKCgoKCgo/8AAEQgCigNiAwEiAAIRAQMRAf/EAB8AAAEFAQEBAQEBAAAAAAAAAAABAgMEBQYHCAkKC//EALUQAAIBAwMCBAMFBQQEAAABfQECAwAEEQUSITFBBhNRYQcicRQygZGhCCNCscEVUtHwJDNicoIJChYXGBkaJSYnKCkqNDU2Nzg5OkNERUZHSElKU1RVVldYWVpjZGVmZ2hpanN0dXZ3eHl6g4SFhoeIiYqSk5SVlpeYmZqio6Slpqeoqaqys7S1tre4ubrCw8TFxsfIycrS09TV1tfY2drh4uPk5ebn6Onq8fLz9PX29/j5+v/EAB8BAAMBAQEBAQEBAQEAAAAAAAABAgMEBQYHCAkKC//EALURAAIBAgQEAwQHBQQEAAECdwABAgMRBAUhMQYSQVEHYXETIjKBCBRCkaGxwQkjM1LwFWJy0QoWJDThJfEXGBkaJicoKSo1Njc4OTpDREVGR0hJSlNUVVZXWFlaY2RlZmdoaWpzdHV2d3h5eoKDhIWGh4iJipKTlJWWl5iZmqKjpKWmp6ipqrKztLW2t7i5usLDxMXGx8jJytLT1NXW19jZ2uLj5OXm5+jp6vLz9PX29/j5+v/aAAwDAQACEQMRAD8A+qaKKKACiiigAooooAKKKKACiiigAooooAKKKKACiiigAooooAKKKKACiiigAooooAKKKKACiiigAooooAKKKKACiiigAooooAKKKKACiiigAooooAKKKKACiiigAooooAKKKKACiiigAooooAKKKKACiiigAooooAKKKKACiiigAooooAKKKKACiiigAooooAKKKKACiiigAooooAKKKKACiiigAooooAKKKKACiiigAooooAKKKKACiiigAooooAKKKKACiiigAooooAKKKKACiiigAooooAKKKKACiiigAooooAKKKKACiiigAooooAKKKKACiiigAooooAKKKKACiiigAooooAKKKKACiikoAWiiigAooooAKKKKACiiigAopKWgAooooAKKKKACiiigAooooAKKKKACiiigAooooAKKKKACiiigAooooAKKKKAEpaKKACiiigAooooAKKKKACiiigAooooAKKKKACiiigAooooAKKKKACiiigAooooAKKKKACiiigAooooAKKKKACiiigAooooAKKKKACiiigAooooAKKKKACiiigAooooAKKKKACiiigAooooAKKKKACiiigAooooAKKKKACiiigAooooAKKKKACiiigAooooAKKKKACiiigAooooAKKKKACiiigAooooAKKKKACiiigAooooAKKKKACiiigAooooAKKKKACiiigAooooAKKKKACiiigAooooAKKKKACiiigAooooAKKKKACiiigAooooAKKKKACiiigAooooAKKKKACiiigAooooAKKKKACiiigAooooAKKKKACiiigAooooAKKKKACiiigAooooAKKKKACiiigAooooAKKKKACiiigAooooAKKKKACiiigAooooAKKKKACiiigAooooAKKKKACiiigAooooAKKKKACiiigAooooAKKKKACiiigAooooAKKKKACiiigAooooAKKKKACiiigAooooAKKKKACiiigAooooAKKKKACiiigAooooAKKKKACiiigAooooAKKKKACiiigAooooAKKKKACiiigAooooAKKKKACiiigAooooAKKKKACiiigAooooAKKKKACiiigAooooAKKKKACiiigAooooAKKKKACiiigAooooAKKKKACiiigAooooAKKKKACiiigAooooAKKKKACiiigAooooAKKKKACiiigAooooAKKKKACiiigAooooAKKKKACiiigAooooAKKKKACiiigAooooAKKKKACiiigAooooAKKKKACiiigAooooAKKKKACiiigAooooAKKKKACiiigAooooAKKKKACiiigAooooAKKKKACiiigAooooAKKKKACiiigAooooAKKKKACiiigAooooAKKKKACiiigAooooAKKKKACiiigAooooAKKKKACiiigAooooAKKKKACiiigAooooAKKKKACiiigAooooAKKKKACiiigAooooAKKKKACiiigAooooAKKKKACiiigAooooAKKKKACiiigAooooAKKKKACiiigAooooAKKKKACiiigAooooAKKKKACiiigAooooAKKKKACiiigAooooAKKKKACiiigAooooAKKKKACiiigAooooAKKKKACiiigAooooAKKKKACiiigAooooAKKKKACiiigAooooAKKKKACiiigAooooAKKKKACiiigAooooAKKKKACiiigAooooAKKKKACiiigAooooAKKKKACiiigAooooAKKKKACiiigAooooAKKKKACiiigAooooAKKKKACiiigAooooAKKKKACiiigAooooAKKKKACiiigApKWigAoopKAFpKWigBKWiigApKWigAooooAKKKKACiiigAooooAKKKKACiiigAooooASloooASilooAKKKKACiiigAooooAKKKKACiiigAooooAKKKKACiiigApKWigApKWigAooooAKSlooAKKKKACiiigAooooAKKKKACkpaKACiiigAooooAKKKKACkpaKACiiigAooooAKKKKACkpaKACiiigAooooAKKKKACiiigAooooAKKKKACiiigAooooAKKKKACiiigAooooAKKKKACiiigAooooAKKKKACiiigAooooAKKKKACiiigAooooAKKKKACiiigAooooAKKKKACiiigAooooAKKKKACiiigAooooAKKKKACiiigAooooAKKKKACiiigAooooAKKKKACiiigAooooAKKKKACiiigAooooAKKKKACiiigAooooAKKKKACiiigAooooAKKKKACiiigAooooAKKKKACiiigAooooAKKKKACiiigAooooAKKKKACiiigAooooAKKKKACiiigAooooAKKKKACiiigAooooAKKKKACiiigAooooAKKKKACiiigAooooAKKKKACiiigAoopKAFopKWgAooooAKKKKACiiigAooooAKKKKACiiigAooooAKKKKACiiigAooooAKKKKACiiigAooooAKKKKACiiigAooooAKKKKACiiigAooooAKKKKACiiigAooooAKKKKACiiigAooooAKKKKACiiigAooooAKKKKACiiigAooooAKKKKACiiigAooooAKKKKACiiigAooooAKKKKACiiigAooooAKKKKACiiigAooooAKKKKACiiigAooooAKKKKACiiigAooooAKKKKACiiigAooooAKKKKACiiigAoopKAFooooAKKKKACiiigAooooAKKKKACiiigAooooAKKKKACiiigAooooAKKKKACiiigAooooAKKKKACiiigAooooAKKKKACiiigAooooAKKKKACiiigAooooAKKKKACiiigAooooAKKKKACiiigAooooAKKKKACiiigAooooAKKKKACiiigAooooAKKKKACiiigAooooAKKKKACiiigAooooAKKKKACiiigAooooAKKKKACiiigAooooAKKKKACiiigAooooAKKKKACiiigAooooAKKKKACiiigAooooAKKKKACiiigAooooAKKKKACiiigAooooAKKKKACiiigAooooAKKKKACiiigAooooAKKKKACiiigAooooAKKKKACiiigAooooAKKKKACiiigAooooAKKKKACiiigAooooAKKKKACiiigAooooAKKKKACiiigAooooAKKKKACiiigAooooAKKKKACiiigAooooAKKKKACiiigAooooAKKKKACiiigAooooAKKKKACiiigAooooAKKKKACiiigAooooAKKKKACiiigAooooAKKKKACiiigAooooAKKKKACiiigAooooAKKKKACiiigAooooAKKKKACiiigAooooAKKKKACiiigAooooAKKKKACiiigAooooAKKKKACiiigAooooAKKKKACiiigAooooAKKKKACiiigAooooAKKKKACiiigAooooAKKKKACiiigAooooAKKKKACiiigAooooAKKKKACiiigAooooAKKKKACiiigAooooAKKKKACiiigAooooAKKKKACiiigAooooAKKKKAGSyJFGzyuqIoyWY4A/Gqv8Aa2nf8/8Aaf8Af5f8azvHn/Im6x/17tXzbXm43HvCyUVG9z3spyaOYU5Tc7Wdtj6j/tbTv+f+0/7/AC/40f2tp3/P/af9/l/xr5cori/tmX8n4nrf6qQ/5+v7v+CfUf8Aa2nf8/8Aaf8Af5f8aP7W07/n/tP+/wAv+NfLlFH9sy/k/EP9VIf8/X93/BPqP+1tO/5/7T/v8v8AjR/a2nf8/wDaf9/l/wAa+XKKP7Zl/J+If6qQ/wCfr+7/AIJ9R/2tp3/P/af9/l/xo/tbTv8An/tP+/y/418uUUf2zL+T8Q/1Uh/z9f3f8E+o/wC1tO/5/wC0/wC/y/40f2tp3/P/AGn/AH+X/Gvlyij+2ZfyfiH+qkP+fr+7/gn1H/a2nf8AP/af9/l/xo/tbTv+f+0/7/L/AI18uUUf2zL+T8Q/1Uh/z9f3f8E+o/7W07/n/tP+/wAv+NPh1GynkEcN3bySHoqSAk/hmvlmus+Fn/I9ab/20/8ARbVpSzaVScYcu7tuYYnhmFGjOqqjfKm9uy9T6EqvLe2sMhSW5gRx1VpACKsV4p8Rv+Rxv/pH/wCi1rozXMHgKKqqN7u34P8AyPj6k+RXPYP7Ssv+fy2/7+r/AI0f2lY/8/lt/wB/V/xr56or5/8A1qn/AM+l9/8AwDH277H0L/aVj/z+W3/f1f8AGj+0rH/n8tv+/q/4189UUf61T/59L7/+AHt32PoX+0rH/n8tv+/q/wCNH9pWP/P5bf8Af1f8a+eqKP8AWqf/AD6X3/8AAD277H0L/aNj/wA/lt/39X/Gj+0rH/n8tv8Av6v+NfPVFH+tU/8An0vv/wCAHt32PoX+0rL/AJ/Lb/v6v+NH9pWP/P5bf9/V/wAa+eqKP9ap/wDPpff/AMAPbvsfQv8AaVj/AM/lt/39X/Gj+0rH/n8tv+/q/wCNfPVFH+tU/wDn0vv/AOAHt32PoX+0rH/n8tv+/q/40f2lY/8AP5bf9/V/xr56oo/1qn/z6X3/APAD277H0dG6yIHjZXQ8hlOQadWL4M/5FbTP+uIrar6+jU9pTjPuk/vOhO6uFFFFaDCivnn9qz4heJ/A154bTwvqZsVu452mHkxybypj2/fU4+8eleCf8L/+Jf8A0Mjf+AcH/wARQB+gNFfn9/wv/wCJf/QyN/4Bwf8AxFH/AAv/AOJf/QyN/wCAcH/xFAH6A0V4X+yt458ReONH1+fxRqBvpbWeJIm8pI9oKkkfKBnpXulABRRRQAUUUUAFFFfOP7VPxG8U+B9a0GDwxqhsYrm3keVRDHJuIYAH5lOOvagD6Oor8/v+F/8AxL/6GRv/AADg/wDiKP8Ahf8A8S/+hkb/AMA4P/iKAP0Bor8/v+F//Ev/AKGRv/AOD/4ivpT9lnxt4g8b+GdZu/E9+b64t7xYo28pI9q7AcYUDvQB7bRRRQAUUUUAFFFFABRRRQAUUUUAFFeZePvjd4K8GNLb3Wo/2hqKcG0sAJXB9GbO1foTn2rwDxd+1N4kv2ePw1ptlpMJ4Es3+kTfXnCj6bTQB9mVn6jrWl6aM6lqVlaAf8951j/mRX50+IPiT4z8QFv7V8TapMjdYlnMcf8A3wuF/SuTdmdizsWY9STkmgD9Irn4m+BrY4l8X6BkdQt/G2PyJqsPi34AJA/4S7R//AgV+clFAH6S2/xM8DXBAi8X6Bk9mv4lP6sK3LDX9H1HH9n6tp91np5Fyj/yNfl9SgkHIODQB+qVLX5laN4z8TaIVOkeINVswP4Ybt1X8Vzg16R4b/aQ8f6QyLeXdnq8I423luA2P95Npz9c0AfdtFfOng/9qfw9fskPifS7vSZDwZoT9oi+pwAw/AGvc/DXibRPE9kLvw/qlpqFv3aCQMV9mHVT7ECgDYooooAKKKKACiiigAooooAKKKKACiiigAooooAKKKKACiiigAooooAKKKKACiiigAooooAKKKKACiiigAooooAKKKKACiiigDB8ef8AInax/wBe7V8219JePP8AkTtY/wCvdq+ba+dzn+LH0PueFf8Ad5+v6BRRRXkH1AUUUUAFFFFABRRRQAUUUUAFFFFABXV/Cz/ketN/7af+i2rlK6z4Wf8AI9ab/wBtP/RbVvhf40PVfmceY/7pV/wy/I+hK8U+I3/I43/0j/8ARa17XXinxG/5HG/+kf8A6LWu/if/AHSP+Jfkz8kr/Cc1RRRXwZyhRRRQAUUUUAFFFFABRRRQAUUUUAFFFFAHu3gz/kVtM/64itqsXwZ/yK2mf9cRW1X6vg/93p+i/I7o7IKKKK6Cj5N/bj/5CHg//rldfzir5dr6i/bj/wCQh4P/AOuV1/OKvl2gAooooA+uv2H/APkX/FP/AF9Q/wDoDV9NV8y/sP8A/Iv+Kf8Ar6h/9AavpqgAooooAKKKKACvkP8Abf8A+Rj8L/8AXrN/6GtfXlfIf7cH/Ix+F/8Ar0m/9DWgD5nooooAK+xP2I/+RM8Rf9hBf/RYr47r7E/Yj/5EzxF/2EF/9FigD6QooooAKKKKACiiigAoorzb41/FTTfhroYdwl1rdyp+x2eev+2/og/M9B3IAN34iePtA8AaQb7xBdiMtkQ20fzTTkdkX+pwB3NfGnxT+PHifxu81pZyto2iNkC1tnIeRf8AppJwW+gwPY9a878W+JdW8W63Pq2vXkl1eTHlm6IOyqOiqOwFY1ABRRRQAUUUUAFFFFABRRRQAUUUUAFX9F1fUdD1CO+0e+ubG8j+7NbyFGHtkdvaqFdn8HfDH/CX/ErQdIZN9vJcCW4GOPKT53/MKR9SKAPv34cPrEvgTQpfEs5n1iW0SW5coEO5huwQABkAgH3FdJQBgYHAooAKKKKACiiigAooooAKKKKACiiigAooooAKKKKACiiigAooooAKKKKACiiigAooooAKKKKACiiigAooooAKKKKACiiigDB8ef8AInax/wBe7V8219JePP8AkTtY/wCvdq+ba+dzn+LH0PueFf8Ad5+v6BRRRXkH1AUUUUAFFFFABRRRQAUUUUAFFFFABXWfCz/ketN/7af+i2rk66z4Wf8AI9ab/wBtP/RbVvhf40PVfmceY/7pV/wy/Jn0JXinxG/5HG/+kf8A6LWva68U+I3/ACON/wDSP/0Wtd/E/wDukf8AEvyZ+SV/hOaooor4M5QooooAKKKKACiiigAooooAKKKKACiiigD3bwZ/yK2mf9cRW1WL4M/5FbTP+uIrar9Xwf8Au9P0X5HdHZBRRRXQUfJv7cf/ACEPB/8A1yuv5xV8u19Rftx/8hDwh/1yuv5xV8u0AFFFFAH11+w//wAi/wCKf+vqH/0Bq+mq+Zf2H/8AkX/FP/X1D/6A1fTVABRRRQAUUUUAFfIf7cH/ACMfhf8A69Jv/Q1r68r5D/bf/wCRj8L/APXpN/6GtAHzPRRRQAV9ifsR/wDImeIv+wgv/osV8d19ifsR/wDImeIv+wgv/osUAfSFFFFABRRRQAUUUUAcz8RvGFh4F8JXuu6mcpAu2KIHDTSn7qD3J/IAntX52eM/E2peMPEd5rWtTGW7uWyR/DGvZFHZQOAK9Y/aw8et4m8dNoVlLnStFYxEKeJLj/lo3/Afuj6N614ZQAUUUUAFbfhPwtrfi3VF0/w7p09/dHkiMfKg9WY8KPckV1/wT+FWofEvXGQM9rolqwN3ebc4/wBhPVz+QHJ7A/d3g7wpo3g7RYtL8PWMdpapydoy0jf3nbqx9zQB83eCf2VGdI5/GmtFCeTaacASPYyMP5L+NexaD8DPh3oyr5Xhy3upB1kvWacn8GO38hXpdFAGHZ+EfDdkoWz8P6RAB0EVlGv8lq22haSww2l2BHobdP8ACtGigDnL7wJ4SvgReeGNEmz3exiJ/PbXIaz8BPhzqqsW8PpaSH+O0mkix+AO39K9SooA+Y/E/wCyhp0qu/hnxDdW79VivohKp9t67SPyNeK+Nfgd468KLJLcaS2oWacm508+cuPUqBvA9yuK/QaigD8rGBUkMCCOoNfUn7E/hjfc674onThANPt2I7nDyfp5f5mvbfiL8IPCPjuOSTU9PW21Jhxf2mI5s+rcYf8A4ED+Favwt8F2/gDwZZ6Baz/afJZ3kuCmwyszE5IyccYHXtQB1tFFFABRRRQAUUUUAFFFFABRRRQAUUUUAFFFFABRRRQAUUUUAFFFFABRRRQAUUUUAFFFFABRRRQAUUUUAFFFFABRRRQAUUUUAYPjz/kTtY/692r5tr6S8ef8idrH/Xu1fNtfO5z/ABY+h9zwr/u8/X9AoooryD6gKKKKACiiigAooooAKKKKACiiigArq/hZ/wAj1pv/AG0/9FtXKV1nws/5HrTf+2n/AKLat8L/ABoeq/M48x/3Sr/hl+R9CV4p8Rv+Rxv/AKR/+i1r2uvFPiN/yON/9I//AEWtd/E/+6R/xL8mfklf4TmqKKK+DOUKKKKACiiigAooooAKKKKACiiigAooooA928Gf8itpn/XEVtVi+DP+RW0z/riK2q/V8H/u9P0X5HdHZBRRRXQUfJv7cf8AyEPCH/XK6/nFXy7X1F+3H/yEPCH/AFyuv5xV8u0AFFFFAH11+w//AMi/4p/6+of/AEBq+mq+Zv2H/wDkX/FP/X1D/wCgNX0zQAUUUUAFFFFABXyH+2//AMjH4X/69Jv/AENa+vK+Q/23/wDkY/C//XpN/wChrQB8z0UUUAFfYn7Ef/ImeIv+wgv/AKLFfHdfYn7Ef/ImeIv+wgv/AKLFAH0hRRRQAUUUUAFcz8SvEa+EfAet64SN9nbM0QPQyn5UH4sVFdNXz9+2hrDWXw507TI2w2oXy7x6pGpYj/vopQB8YTzSXE8k07tJLIxd3Y5LEnJJqOiigArR8PaRd6/rthpOnJvvL2ZYIl7ZY4yfYdSfSs6vff2NvD6an8R7zVpkDJpVoWjJ7SyHYD/3z5lAH1r8P/Cdh4J8J2Gh6WgEVunzyYw00h+87e5P5cDtXRUUUAFFFFABRRRQAUUUUAFFFFABRRRQAUUUUAFFFFABRRRQAUUUUAFFFFABRRRQAUUUUAFFFFABRRRQAUUUUAFFFFABRRRQAUUUUAFFFFABRRRQAUUUUAFFFFABRRRQBg+PP+RO1j/r3avm2vpLx5/yJ2sf9e7V82187nP8WPofc8K/7vP1/QKKKK8g+oCiiigAooooAKKKKACiiigAooooAK6z4Wf8j1pv/bT/ANFtXJ11nws/5HrTf+2n/otq3wv8aHqvzOPMf90q/wCGX5H0JXinxG/5HG/+kf8A6LWva68U+I3/ACON/wDSP/0Wtd/E/wDukf8AEvyZ+SV/hOaooor4M5QooooAKKKKACiiigAooooAKKKKACiiigD3bwZ/yK2mf9cRW1WL4M/5FbTP+uIrar9Xwf8Au9P0X5HdHZBRRRXQUfJv7cf/ACEPB/8A1yuv5xV8u19Rftyf8hDwf/1yuv5xV8u0AFFFFAH11+w//wAi/wCKf+vqH/0Bq+mq+Zf2H/8AkX/FP/X1D/6A1fTVABRRRQAUUUUAFfIf7b//ACMfhf8A69Zv/Q1r68r5D/bf/wCRj8L/APXrN/6GtAHzPRRRQAV9ifsR/wDImeIv+wgv/osV8d19ifsR/wDImeIv+wgv/osUAfSFFFFABRRRQAV8mftxXRbUfCVpn5UiuJcf7xjH/stfWdfIn7cCMPEXhdyPla0mUfUOv+IoA+ZqKKKACvrL9hyJBp/i6UY8xpbZT9AJCP5mvk2vqD9h7UVTVPFemMw3zQwXCD2RnVv/AENaAPrSiiigAooooAKKKKACiiigAooooAKKKKACiiigAooooAKKKKACiiigAooooAKKKKACiiigAooooAKKKKACiiigAooooAKKKKACiiigAooooAKKKKACiiigAooooAKKKKAMHx5/yJ2sf9e7V8219JePP+RO1j/r3avm2vnc5/ix9D7nhX/d5+v6BRRRXkH1AUUUUAFFFFABRRRQAUUUUAFFFFABXWfCz/ketN/7af8Aotq5Ous+Fn/I9ab/ANtP/RbVvhf40PVfmceY/wC6Vf8ADL8j6ErxT4jf8jjf/SP/ANFrXtdeKfEb/kcb/wCkf/ota7+J/wDdI/4l+TPySv8ACc1RRRXwZyhRRRQAUUUUAFFFFABRRRQAUUUUAFFFFAHu3gz/AJFbTP8AriK2qxfBn/IraZ/1xFbVfq+D/wB3p+i/I7o7IKKKK6Cj5N/bk/5CHhD/AK5XX84q+Xa+ov24/wDkIeD/APrldfzir5doAKKKKAPrr9h//kX/ABT/ANfUP/oDV9NV8y/sP/8AIv8Ain/r6h/9AavpqgAooooAKKKKACvkP9t//kY/C/8A16Tf+hrX15XyH+2//wAjH4X/AOvWb/0NaAPmeiiigAr7E/Yj/wCRM8Rf9hBf/RYr47r7E/Yj/wCRM8Rf9hBf/RYoA+kKKKKACiiigAr5i/bg01pNF8LaoF+WG4mtmPu6qw/9FtX07XmH7SXhxvEvwh1qKFN9zZKL+IAc5j5bH/AC4oA/PqiiigAr0X4A+Lk8GfFDSb+6kEdhOTZ3TE4Ajk43H2Vtrf8AAa86ooA/VMHIBByDS18+fsvfFyHxFpFv4U1+4C63ZpstZJG/4+olHAz3dR1HcDPrX0HQAUUUUAFFFFABRRRQAUUUUAFFFFABRRQKACiiigAooooAKKKKACiiigAooooAKKKKACiiigAooooAKKKKACiiigAooooAKKKKACiiigAooooAKKKKACiiigAooooAwfHn/Inax/17tXzbX0l48/5E7WP+vdq+ba+dzn+LH0PueFf93n6/oFFFFeQfUBRRRQAUUUUAFFFFABRRRQAUUUUAFdZ8LP8AketN/wC2n/otq5Our+Fn/I9ab/20/wDRbVvhf40PVfmceY/7pV/wy/I+ha8U+I3/ACON/wDSP/0Wte114p8Rv+Rxv/pH/wCi1rv4n/3SP+Jfkz8kr/Cc1RRRXwZyhRRRQAUUUUAFFFFABRRRQAUUUUAFFFFAHu3gz/kVtM/64itqsXwZ/wAitpn/AFxFbVfq+D/3en6L8jujsgoooroKPk39uP8A5CHg/wD65XX84q+Xa+ov24/+Qh4Q/wCuV1/OKvl2gAooooA+u/2H/wDkX/FP/X1D/wCgNX0zXzL+w/8A8i/4p/6+of8A0Bq+mqACiiigAooooAK+Q/23/wDkY/C//XpN/wChrX15XyH+2/8A8jH4X/69Zv8A0NaAPmeiiigAr7E/Yj/5EzxF/wBhBf8A0WK+O6+xP2I/+RM8Rf8AYQX/ANFigD6QooooAKKKKACmyxpLG0cihkYFWVhkEHsadRQB+cfxm8FS+A/iBqWkbGFkzefZOf4oGJK/lyp91NcPX35+0T8Mx8QvCPmafGv9v6cGltG6eaP4oiffAx7gdia+B54ZLeaSGeN45Y2KOjjDKQcEEdjQBHRRRQBNaXM9ndRXNpNJDcQuHjljYqyMDkEEdCK+uPgp+0baajHb6N4/lS0vhhI9TIxFN/10/uN/tfdPt3+QaKAP1RikSaNZInV43AZWU5BB6EGn1+eXwy+MXirwAyQafd/bNKB+awuyWjA77D1Q/Tj1Br6s+Hf7QPg/xaIre+uP7D1NsAwXrARsf9mX7p/HafagD2GimoyuoZGDKRkEHIIp1ABRRRQAUUUUAFFFFABRRRQAUUUUAFFFFABRRRQAUUUUAFFFFABRRRQAUUUUAFFFFABRRRQAUUUUAFFFFABRRRQAUUUUAFFFFABRRRQAUUUUAFFFFAGD48/5E7WP+vdq+ba+l/GcEt14V1SC3jaWaSBlRFGSx9BXgn/CJ+IP+gPe/wDfo14Gb05SqRcVfQ+04ZrU6dCanJLXq/Iw6K3P+ET8Qf8AQHvf+/Ro/wCET8Qf9Ae+/wC/RryfY1P5X9x9L9bofzr70YdFbn/CJ+IP+gPff9+jR/wifiD/AKA99/36NHsan8r+4PrdD+dfejDorc/4RPX/APoD3v8A36NJ/wAIlr//AEB73/v0aPY1P5X9wfW6H86+9GJRW5/wifiD/oD3v/fo0f8ACJ+IP+gPff8Afo0exqfyv7g+t0P5196MOitz/hE/EH/QHvv+/Ro/4RPxB/0B77/v0aPY1P5X9wfW6H86+9GHRW5/wifiD/oD3v8A36NH/CJ+IP8AoD33/fo0exqfyv7g+t0P5196MOus+Fn/ACPWm/8AbT/0W1Z//CJ+IP8AoD33/fo10nw58PaxY+MbC4vNNuoIE37pHjIAyjAc/Wt8NSqKtBuL3XTzOTH4mjLC1Upq/K+q7HuFeKfEb/kcb/6R/wDota9rryXx3omp3nim9ntbC4lhbZtdEJBwiiu7iSnOphYqCu+ZbejPyusrx0OJorX/AOEa1r/oF3f/AH7NH/CNa1/0C7v/AL9mviPqtf8Akf3M5uV9jIorX/4RvWv+gXd/9+zR/wAI1rX/AEC7v/v2aPqtf+R/cw5X2Miitf8A4RrWv+gXd/8Afs0f8I1rX/QLu/8Av2aPqtf+R/cw5X2Miitf/hGta/6Bd3/37NH/AAjWtf8AQLu/+/Zo+q1/5H9zDlfYyKK1/wDhGta/6Bd3/wB+zR/wjWtf9Au7/wC/Zo+q1/5H9zDlfYyKK1/+Ea1r/oF3f/fs0f8ACNa1/wBAu7/79mj6rX/kf3MOV9jIorX/AOEa1r/oF3f/AH7NH/CNa1/0C7v/AL9mj6rX/kf3MOV9j1/wZ/yK2mf9cRW1WT4Uhkt/Dmnwzo0cqRAMjDBBrWr9PwiaoQT7L8jujsgoooroGfJv7cf/ACEPB/8A1yuv5xV8u19Rftx/8hDwh/1yuv5xV8u0AFFFFAH11+w//wAi/wCKf+vqH/0Bq+mq+Zf2H/8AkX/FP/X1D/6A1fTVABRRRQAUUUUAFfIf7b//ACMfhf8A69Jv/Q1r68r5D/bg/wCRj8L/APXpN/6GtAHzPRRRQAV9ifsR/wDImeIv+wgv/osV8d19ifsR/wDImeIv+wgv/osUAfSFFFFABRRRQAUUUUAFfOX7SXwQPiLz/FPhG3H9sKN15ZoMfagP40H/AD09R/F9ev0bRQB+VsiNHIySKyOpKsrDBBHYim19zfG/4Eab4587V9BMWm+I8ZZsYiuj/tgdG/2h+IPb4w8UeHNX8LavLpmv2E1leR9UkHDD+8p6MPcZFAGRRRRQAUUUUAdx4F+Kfi/wSyJoesTfY1P/AB53H72A/RT936rg19DeB/2qNKu/Lg8Y6VLp8p4N1Z5li+pQ/Mo+m6vkGigD9OfC/ivQvFVn9q8O6raahD/F5MgLJ/vL1U+xArbr8ttL1K+0m9jvNLvLizu4zlJoJDG6/Qjmve/h3+07r+kGK18YWy61ZjANxHiO4UevHyv+IB96APs6iuT8BfELw146s/P8O6lHPIozJbP8k0X+8h5/EZHvXWUAFFFFABRRRQAUUUUAFFFFABRRRQAUUUUAFFFFABRRRQAUUUUAFFFFABRRRQAUUUUAFFFFABRRRQAUUUGgAoopKAFooooAKKKKACiiigAorN8RX76Xod9fRIrvbxGQK3QkV5Z/wtrUf+gbaf8AfTV2YbAVsVFypK6R52MzTDYKShWdm9dj2XFFeNf8La1H/oG2n/fTUf8AC2tR/wCgbaf99NXT/YuL/l/FHH/rHgP5n9zPZaK8a/4W1qP/AEDrT/vpqP8Ahbeo/wDQOtP++mo/sXF/y/ig/wBY8B/M/uZ7LRivGv8AhbWo/wDQNtP++mo/4W1qP/QNtP8AvpqP7Fxf8v4oP9Y8B/M/uZ7LRXjX/C2tR/6B1p/301H/AAtrUf8AoHWn/fTUf2Li/wCX8UH+seA/mf3M9lorxr/hbWo/9A60/wC+mo/4W1qP/QNtP++mo/sXF/y/ig/1jwH8z+5nstFeNf8AC2tR/wCgbaf99NR/wtrUf+gdaf8AfTUf2Li/5fxQf6x4D+Z/cz2WivGv+Ftaj/0DrT/vpq2fCHxEvdd8Q2unTWVvFHNuy6FsjCk9/pU1MoxVOLnJaLXdGlLP8FVnGnCTu3ZaPqemUUVy2teJJ9P1Ka2SCN1TGCxOeQD/AFr5/HY+jgKaq13ZN276/wBI9+hQnXly09zqaK4n/hMLn/n2h/M0f8Jhc/8APtD+Zryv9acu/nf3M6v7LxHb8UdtRXE/8Jhc/wDPtD+Zo/4TC5/59ofzNH+tWXfzv7mH9l4jt+J21FcT/wAJhc/8+0P5mj/hMLn/AJ9ofzNH+tWXfzv7mH9l4jt+J21FcT/wmFz/AM+0P5mj/hMLn/n2h/M0f605d/O/uYf2XiO34nbUVxP/AAmFz/z7Q/maP+Ewuf8An2h/M0f61Zd/O/uYf2XiO34nbUVxP/CYXP8Az7Q/maP+Ewuf+faH8zR/rTl387+5h/ZeI7fidtRXE/8ACYXP/PtD+Zo/4TC5/wCfaH8zR/rVl387+5h/ZeI7fidtRVXTLhrvT4Lh1CtIu4gdBVqvfp1I1IKcdmr/AHnBKLi3F9AoooqxHyb+3H/yEPB//XK6/nFXy7X1F+3H/wAhDwf/ANcrr+cVfLtABRRRQB9dfsP/APIv+Kf+vqH/ANAavpqvmX9h/wD5F/xT/wBfUP8A6A1fTVABRRRQAUUUUAFfIf7b/wDyMfhf/r1m/wDQ1r68r5D/AG3/APkY/C//AF6Tf+hrQB8z0UUUAFfYn7Ef/ImeIv8AsIL/AOixXx3X2J+xH/yJniL/ALCC/wDosUAfSFFFFABRRRQAUUUUAFFFFABXP+NPBug+NNKOn+I9Piu4edjEYkiPqjDlT9PxroKKAPi74nfs0a7obTXvg6Rta04Zb7O2Fuox9Oj/AIYP+zXgV3bT2dzJb3cMsFxG214pUKsp9CDyDX6nVyXjn4d+F/G9vs8RaTBcSgYS5UbJk+jjnHscj2oA/Niivpnx3+yvqNqZbjwVqkd7F1Fpe4jlHsHHysfqFrwPxR4S1/wrdfZ/EWkXmnvnCmaMhH/3W+634E0AYVFFFABRRRQBa03ULzS76G9026mtLuFt0c0LlHQ+oI5r6e+EP7S7BoNK+IYypwiarEmCP+uqD/0JfxHevleigD9TbG7t7+0hurKeK4tplDxyxOGR1PQgjgip6/P74LfGLV/hzfpbytJfeHpXzPZM3KZ6vET91vboe/qPuvwv4g0zxRodrq+iXSXVjcLuR16g91I7MOhB6UAa1FFFABRRRQAUUUUAFFFFABRRRQAUUUUAFFFFABRRRQAUUUUAFFFFABRRRQAUUUUAFFFFABRRRQAUUUUAFFFFABRRRQAUUUUAYPjv/kTtY/69m/lXzdX0j47/AORO1j/r3avm6vq+H/4M/X9D4Xiv/eIen6hRRRXvnyoUUUUAFFFFABRRRQAUUUZoAKKKKACus+Fn/I9ab/20/wDRbVyddX8LP+R603/tp/6LaubG/wC71P8AC/yOzLf97pf4o/mj6Erznxb/AMjBdf8AAP8A0EV6NXnPi7/kYLr/AIB/6CK/EuMf9xh/jX5SP23J/wCO/T9UY9FFLX5qfSBRRRSASloooAKKKKACiiigAooooAKKKKAPTPDv/IEs/wDrmK0azvD3/IEs/wDrmK0a/bcD/utL/CvyR8XX/iy9WFFFFdRkfJv7cn/IQ8If9crr+cVfLtfUX7cf/IQ8If8AXK6/nFXy7QAUUUUAfXf7D/8AyL/in/r6h/8AQGr6Zr5l/Yf/AORf8U/9fUP/AKA1fTVABRRRQAUUUUAFfIf7b/8AyMfhf/r0m/8AQ1r68r5D/bf/AORj8L/9ek3/AKGtAHzPRRRQAV9ifsR/8iZ4i/7CC/8AosV8d19ifsR/8iZ4i/7CC/8AosUAfSFFFFABRRRQAUUUUAFFFFABRRRQAUUUUAFQX1nbX9rJbX1vDc20gw8UyB1YehB4NT0UAeH+PP2bvB/iEST6IJNAvmyQbYb4CfeMnj/gJWvmj4i/BPxj4HEtxdWP9oaWmT9tssyIo9XXG5PqRj3r9B6QgEYPIoA/Kyivuv4rfs/eG/GKzXujJHomttlvNgTEMrf7cY9f7y4Pc5r438deC9c8D602m+IrJrebkxyDmOZf7yN0I/UdwKAOcooooAK9S+A3xTuvhz4jVLl5JfD144W8txzs7CVB/eHf1HHpjy2igD9TrK6gvrOC7s5kmtp0WSKRDlXUjIIPoRU1fMX7HXxCa8s7jwXqkxaW2U3Gnsx5Mefnj/AncPYn0r6doAKKKKACiiigAooooAKKKKACiiigAooooAKKKKACiiigAooooAKKKKACiiigAooooAKDRRQAUUUUAFFFFABRRRQAUUUUAYPjv/kTtY/692/lXzdX0j47/wCRO1j/AK92/lXzdX1fD/8ABn6/ofCcV/7xD0/UKKKK98+WCilooASiiigAooooAKKKKACiiloASus+Fn/I9ab/ANtP/RbVyddZ8Lf+R603/tp/6LaubG/7vU/wv8jsy7/e6X+KP5o+g6858W/8jBdf8A/9BFejZrznxb/yMF1/wD/0EV+JcY/7jD/GvykftuT/AMd+n6ox6Wkpa/NT6QKKSlpAFFFJQAtFJRQAtFJS0AFJS0lAC0UlFAHpvh7/AJAln/1zFaNZ3h7/AJAln/1zFaNftuB/3Wl/hX5I+Lr/AMWXqwooorqMj5N/bj/5CHg//rldfzir5dr6i/bj/wCQh4P/AOuV1/OKvl2gAooooA+uv2H/APkX/FP/AF9Q/wDoDV9NV8y/sP8A/Iv+Kf8Ar6h/9AavpqgAooooAKKKKACvkP8Abf8A+Rj8L/8AXrN/6GtfXlfIf7b/APyMfhf/AK9Zv/Q1oA+Z6KKKACvsT9iP/kTPEX/YQX/0WK+O6+xP2I/+RM8Rf9hBf/RYoA+kKKKKACiiigAooooAKKKKACiiigAooooAKKKKACiiigArnfHXg7RvG+gTaTr9qs0D8pIOJIX7OjdiP16HI4roqKAPzf8Aiv8AD7U/hz4ok0vUf3ts4MlpdquFnjz19mHQjsfYgni6/RT43eAYPiD4FvNPEa/2nADPYSnqsoHC59G+6fqD2FfndLG8MrxyqySISrKwwQR1BoAZRRRQBveBfEVx4S8YaTrtoT5llcLIVBxvTo6/ipI/Gv0vsbqG+sre7tXElvPGssbjoysMg/ka/LKv0E/Zp1ttb+DWgPI26a0R7J/by2IX/wAc2UAeoUUUUAFFFFABRRRQAUUUUAFFFFABRRRQAUUUUAFFFFABRRRQAUUUUAFFFFABRRRQAUUUGgAooooAKKKKACiiigAooooAwfHf/Inax/17tXzdX0j47/5E7WP+vZv5V83V9Xw//Bn6/ofCcV/7xD0/UKKKWvfPlhKKWkoAKKKKACiiigAoopaAEopaKAErq/hZ/wAj1pv/AG0/9FtXK11fwt/5HrTf+2n/AKLaubG/7vU/wv8AI7Mu/wB7pf4o/mj6Drznxb/yMF1/wD/0EV6NXnPi3/kYLr/gH/oIr8S4x/3GH+NflI/bcn/jv0/VGPS0UV+aH0gUUUUAFFFFABRRRQAUUlLQAUUUlAC0UUUAemeHv+QJZ/8AXMVo1neHv+QJZ/8AXMVo1+24H/daX+Ffkj4uv/Fl6sKKKK6jI+Tf24/+Qh4P/wCuV1/OKvl2vqL9uP8A5CHg/wD65XX84q+XaACiiigD66/Yf/5F/wAU/wDX1D/6A1fTVfMv7D//ACL/AIp/6+of/QGr6aoAKKKKACiiigAr5D/bf/5GPwv/ANes3/oa19eV8h/tv/8AIx+F/wDr1m/9DWgD5nooooAK+xP2I/8AkTPEX/YQX/0WK+O6+xP2I/8AkTPEX/YQX/0WKAPpCiiigAooooAKKKKACiiigAooooAKKKKACiiigAooooAKKKKACvz8/aV8PJ4e+MGtxwJst70rfRgD/noMt/4+Hr9A6+OP22rVU8caBdAfNLpxjJ9dsjH/ANnoA+cqKKKACvsv9ie9MvgDW7NjnyNS8weweNP6qa+NK+t/2Hif7G8WDsLi3/8AQXoA+naKKKACiiigAooooAKKKKACiiigAooooAKKKKACiiigAooooAKKKKACiiigAooooAKKKKAEpaKKACiiigAooooAKKKKAMHx3/yJ2sf9e7fyr5ur6R8ef8idrH/Xu1fN1fV8P/wZ+v6HwnFf+8Q9P1CiiivfPlgooooAKKKKACiiigAooooAKKKKACur+Fn/ACPWm/8AbT/0W1cpXWfC3/ketN/7af8Aotq5sb/u9T/C/wAjsy7/AHul/ij+aPoOvOfFv/IwXX/AP/QRXo1ec+Lf+Rguv+Af+givxLjH/cYf41+Uj9tyf+O/T9UZFFFFfmh9IFFFFABRRRQAUUUUAFFFFABRRSUALRRRQB6Z4e/5Aln/ANcxWjWd4e/5Aln/ANcxWjX7bgf91pf4V+SPi6/8WXqwooorqMj5N/bj/wCQh4Q/65XX84q+Xa+ov24/+Qh4P/65XX84q+XaACiiigD66/Yf/wCRf8U/9fUP/oDV9NV8y/sP/wDIv+Kf+vqH/wBAavpqgBKWiigAooooAK+Q/wBt/wD5GPwv/wBek3/oa19eV8h/tv8A/Ix+F/8Ar1m/9DWgD5nooooAK+xP2I/+RM8Rf9hBf/RYr47r7E/Yj/5EzxF/2EF/9FigD6QooooAKKKKACiiigAooooAKKKKACiiigAooooAKKKKACiiigAr46/bbuVfxr4ftQfmi09pCP8AekIH/oNfYtfn/wDtNeIE8QfGHWWhffBYbLCMj/pmPn/8fL0AeV0UUUAFfYf7EdqU8HeIrsj5Zb9Ygf8AcjB/9nr48r71/ZU0c6T8GtMkkXbJfyy3jA+hbap/FUU/jQB6/RRRQAUUUUAFFFFABRRRQAUUUUAFFFFABRRRQAUUUUAFFFFABRRRQAUUUUAFFFFABRRRQAUUUUAFFFFABRRRQAUUUUAYPjv/AJE7WP8Ar3avm6vpHx3/AMidrH/Xs1fN1fV8P/wZ+v6HwvFf+8Q9P1CiiivfPlQooooAKKKKACiiigAooooAKKKKACur+Fn/ACPWm/8AbT/0W1cpXWfC3/ketN/7af8Aotq5sb/u9T/C/wAjsy7/AHul/ij+aPoOvOfFv/IwXX/AP/QRXo1ec+Lf+Rguv+Af+givxLjH/cYf41+Uj9tyf+O/T9UZFFFFfmh9IJS0UUAFFFFABRRRQAUUUUAFFFFABRRRQB6Z4e/5Aln/ANcxWjWd4e/5Aln/ANcxWjX7bgf91pf4V+SPi6/8WXqwooorqMj5N/bj/wCQh4P/AOuV1/OKvl2vqL9uP/kIeEP+uV1/OKvl2gAooooA+uv2H/8AkX/FP/X1D/6A1fTVfMv7D/8AyL/in/r6h/8AQGr6aoAKKKKACiiigAr5D/bf/wCRj8L/APXpN/6GtfXlfIf7b/8AyMfhf/r0m/8AQ1oA+Z6KKKACvsT9iP8A5EzxF/2EF/8ARYr47r7E/Yj/AORM8Rf9hBf/AEWKAPpCiiigAooooAKKK4X40eOT8PPAd1rcUUM94JY4beGXO2R2bkHHPChj+FAHdUV4/wDDT4++EvGKxW17ONE1dsA2924Ebn/Yk6H6HB9q9fBBGQQQaAFooooAKKKKACiiigAooooAKKKxfF3ibSfCWh3Gra9dpa2cI5LfeduyqOrMewFAGD8ZPHNv4A8C32rO6/bmUw2UR/5aTMDt49Byx9ga/OeeaS4nkmndpJZGLu7HJYk5JNd38ZfiTf8AxJ8TtezhoNNt8x2VpnIjTP3j6u2ASfoOgrgKACiiigC9ommXOtazY6ZYpvurydIIl9WZgB/Ov028P6VBoehadpVoMW9lbx28f+6ihR/KvkX9jvwM2q+KbjxZexf6FpYMVsWHD3DDkj/dUn8WX0r7KoAKKKKACiiigAooooAKKKKACiiigAooooAKKKKACiiigAooooAKKKKACiiigAooooAKKKKACiiigAooooAKKKKACiiigDB8d/8AInax/wBezfyr5ur6R8ef8idrH/Xs1fN1fV8P/wAGfr+h8JxX/vEP8P6hRRRXvnywUUUUAFFFFABRRRQAUUUUAFFFFABXWfCz/ketN/7af+i2rk66z4W/8j1pv/bT/wBFtXNjf93qf4X+R2Zd/vdL/FH80fQdec+Lf+Rguv8AgH/oIr0avOfFv/IwXX/AP/QRX4lxj/uMP8a/KR+25P8Ax36fqjIooor80PpAooooAKKKKACiiigAooooAKKKKACiiigD0zw9/wAgSz/65itGs7w9/wAgSz/65itGv23A/wC60v8ACvyR8XX/AIsvVhRRRXUZHyb+3H/yEPB//XK6/nFXy7X1F+3H/wAhDwf/ANcrr+cVfLtABRRRQB9dfsP/APIv+Kf+vqH/ANAavpqvmX9h/wD5F/xT/wBfUP8A6A1fTVABRRRQAUUUUAFfIf7b/wDyMfhf/r0m/wDQ1r68r5D/AG3/APkY/C//AF6Tf+hrQB8z0UUUAFfYn7Ef/ImeIv8AsIL/AOixXx3X2J+xH/yJniL/ALCC/wDosUAfSFFFFABRRRQAV8h/treJ/tOvaL4ZgfMdnEbycA/8tH+VAfcKCf8AgdfXUjrHGzyMFRQWLHoAO9fmr8TvEjeLvH2ua4WJjurljDntEvyxj/vkLQBy9egeA/i94z8EiOLSdWeaxT/lyu/30OPQA8r/AMBIrz+igD7A8HftVaPdiOHxZo9zp8vQ3FofOiPuVOGUew3V7N4Z+JPg7xME/sXxFp08jdIWlEcv/fD4b9K/NmigD9UwcjIpc1+ZeieNPE+hBRo/iDVbJF6JDdOqf985x+ldpp3x/wDiRYgKPEJuEHa4tYn/AF25/WgD9AKK+G4f2m/iBGAHbSZfd7T/AAYUk/7TfxAkBCNpMR9UtM/zY0Afcuaq6lqNlpdo91qd3b2dsn3pbiURoPqTxXwHq3x2+I2pqyyeJJoEPa1hjhI/4Eqg/rXAavrGp6zcefq+o3l/N/z0uZmlb82JoA+zPiH+0t4X0GOW28MK2vagMgOmUt0Pu5GW/wCAjB9RXyb4/wDHniDx5qv27xFetMVz5MCfLFCD2Re315J7k1y1FABRRRQAVu+CfC+o+MfE1lomjxb7q5fG4/djX+J29FA5/wDr1T8P6LqHiHV7bS9GtZbu+uG2RxRjJJ9T6AdSTwBX3n8DPhTZfDbQiZTHc69dqDd3QHC9/LT/AGR+p5PYAA7HwL4XsPBnhXT9C0pcW9rHtLkfNI55Z29ycmt+iigAooooAKKKKACiiigAooooAKKKKACiiigAooooAKKKKACiiigAooooAKKKKACiiigAooooAKKKKACiiigAooooAKKKKAMHx3/yJ2sf9e7fyr5ur6R8d/8AInax/wBe7fyr5ur6vh/+DP1/Q+E4r/3iHp+oUUUV758sFFFFABRRRQAUUUUAFFFFABRRRQAV1nws/wCR603/ALaf+i2rk66z4W/8j1pv/bT/ANFtXNjf93qf4X+R2Zd/vdL/ABR/NH0HXnPi3/kYLr/gH/oIr0avOfFv/IwXX/AP/QRX4lxj/uMP8a/KR+25P/Hfp+qMiikpa/NT6QKKSlpAFFJS0AFFFFABRRSUALRSUUwFoopKQHpvh7/kCWf/AFzFaNZ3h7/kCWf/AFzFaNftuB/3Wl/hX5I+Lr/xZerCiiiuoyPk39uP/kIeEP8Arldfzir5dr6i/bj/AOQh4Q/65XX84q+XaACiiigD66/Yf/5F/wAU/wDX1D/6A1fTVfMv7D//ACL/AIp/6+of/QGr6aoAKKKKACiiigAr5D/bf/5GPwv/ANes3/oa19eV8h/tv/8AIxeF/wDr0m/9DWgD5nooooAK+xP2I/8AkTPEX/YQX/0WK+O6+xP2I/8AkTPEX/YQX/0WKAPpCiiigAooooA5r4k6fq2reA9d0/w60S6pdWrwQmVyijcMNzjg7Sce+K/OfxP4b1jwvqb6f4g064sLtf4JlwGHqp6MPcEiv09rK8ReH9I8Sae1jr2nWuoWrf8ALOdA2D6g9Qfcc0AfmBRX2D44/ZY0e9Mlx4P1SbTJTyLW6Bmh+gb7yj67q8L8WfA3x/4aLtNoct/br/y304+eCPXaPnH4qKAPMqKluIJraZobmKSGVThkkUqwPuDUVABRRRQAUUUUAFFFFABRSgFiAAST0Ar0HwZ8HPHHi1o20/Q57a1b/l6vR5EePUbuWH+6DQB57XcfDT4Y+JPiFfiLRbQpZK2Jr6YFYYvXn+I/7Iyf519KfDv9mLQtIaK78X3bazdrz9mjBjt1Pv8AxP8Ajgeor6AsLO20+0itbC3htrWJdscUKBEQegA4FAHD/Cb4V6F8N9MMenJ9p1OVQLm/lUeZJ7D+6uf4R+JNegUUUAFFFFABRRRQAUUUUAFFFFABRRRQAUUUUAFFFFABRRRQAUUUUAFFFFABRRRQAUUUUAFFFFABRRRQAUUUUAFFFFABRRRQAUUUUAVtTsodSsJ7O5DGGZCj7Tg4PvXI/wDCsfDv/PO6/wC/xrt6K3pYmrRVqcmvQ5q+DoYhqVWCk13RxH/CsfDv/PO6/wC/xo/4Vj4d/wCed1/3+NdvRWv9oYn/AJ+P7zD+ysF/z6j9xxH/AArHw7/zzuv+/wAaP+FY+Hf+ed1/3+NdvRR/aGJ/5+P7w/srBf8APqP3HEf8Kx8O/wDPO6/7/Gj/AIVj4d/553X/AH+NdvRR/aGJ/wCfj+8P7KwX/PqP3HEf8Kx8O/8APO6/7/Gj/hWPh3/nndf9/jXb0Uf2hif+fj+8P7KwX/PqP3HEf8Kx8Of887r/AL/Gj/hWPh3/AJ53X/f4129FH9oYn/n4/vD+ysF/z6j9xxH/AArHw7/zzuv+/wAaP+FY+Hf+ed1/3+NdvRR/aGJ/5+P7w/srBf8APqP3HEf8Kx8O/wDPO6/7/Gr2i+BNF0fUob6yS4FxFnaWlJHIIPH0NdTRUyx2IknGU3Z+ZUMtwkJKUaaTXkFZN94fsb66e4nEhkfGcNgcDFa1FediMNRxMeStFSW+p6NOpOm7wdmYP/CK6Z/dm/77o/4RXTP7sv8A33W9RXH/AGNgP+fMfuRt9cr/AM7+8wf+EV0z+7N/33R/wiumf3Zv++63qKP7GwH/AD5j9yD65X/nf3mD/wAIrpn92b/vuj/hFdM/uy/991vUUf2NgP8AnzH7kH1yv/O/vMH/AIRXTP7s3/fdH/CK6Z/dm/77reoo/sbAf8+Y/cg+uV/5395g/wDCK6Z/dm/77o/4RXTP7s3/AH3W9RR/Y2A/58x+5B9cr/zv7zB/4RXTP7s3/fdH/CK6Z/dm/wC+63qKP7GwH/PmP3IPrlf+d/eYP/CK6Z/dm/77o/4RXTP7sv8A33W9RR/Y2A/58x+5B9cr/wA7+8itYEtbeOCLPloMDPNS0UV6MYqCUYqyRzttu7CiiiqEU7/S9P1EodQsbW6KZ2meFX2564yOKqf8IzoP/QE0z/wEj/wrXooAyP8AhGdB/wCgJpn/AICR/wCFH/CM6D/0BNM/8BI/8K16KAKthp1jpyuun2dtaq5ywgiVAx98CrVFFABRRRQAUUUUAFU7/StP1FkbULC0umQYUzwq5Ue2RVyigDI/4RnQf+gJpn/gJH/hR/wjOg/9ATTP/ASP/CteigDI/wCEZ0H/AKAmmf8AgJH/AIVesNPstPRksLS3tUY5ZYYlQE+pwKs0UAFFFFABRRRQAUUUUAFFFFAGXrfh7Rtdi8vWtJsNQTGMXVukuP8AvoGvPNa/Z++HOqFmGiNZSN/HZ3Dx4+i5K/pXq9FAHznqf7KPhmUk6br2sW2egmEcwH5Ktc7dfskygk2ni9COwl08j9RJX1dRQB8ht+yZq+fl8UWBHvbOP61NB+yXqBP7/wAWWqD/AGLJm/m4r62ooA+Y7D9kvTUIOoeKryYdxBaLH+pZq6/Rv2Z/h/p5VruLU9SI6i6utoP4Rha9tooA5rw34E8K+Gtp0Lw/ptnIvSVIFMn/AH2csfzrpaKKACiiigAooooAKKKKACiiigAooooAKKKKACiiigAooooAKKKKACiiigAooooAKKKKACiiigAooooAKKKKACiiigAooooAKKKKACiiigAooooAKKKKACiiigAooooAKKKKACiiigAooooAKKKKACiiigAooooAKKKKACiiigAooooAKKKKACiiigAooooAKKKKACiiigAooooAKKKKACiiigAooooAKKKKACiiigAooooAKKKKACiiigAooooAKKKKACiiigAooooAKKKKACiiigAooooAKKKKACiiigAooooAKKKKACiiigAooooAKKKKACiiigAooooAKKKKACiiigAooooAKKKKACiiigAooooAKKKKACiiigAooooAKKKKACiiigAooooAKKKKACiiigAooooAKKKKACiiigAooooAKKKKACiiigAooooAKKKKACiiigAooooAKKKKACiiigAooooAKKKKACiiigAooooAKKKKACiiigAooooAKKKKACiiigAooooAKKKKACiiigAooooAKKKKACiiigAooooAKKKKACiiigAooooAKKKKACiiigAooooAKKKKACiiigAooooAKKKKACiiigAooooAKKKKACiiigAooooAKKKKACiiigAooooAKKKKACiiigBKWiigBKWiigBKKWigBKKWigAooooAKKKKACkpaKACkpaKACiiigAooooAKSlooAKSlooAKKKKACiiigApKWigBKKWigAooooAKKKKACiiigBKWiigApKWigBKWiigAooooAKKKKACiiigBKWiigAooooASloooASloooAKSlooAKKKKAEpaKKACiiigBKWiigApKWigBKKWigAooooASloooAKSlooAKSlooAKKKKAEpaKKAEopaKACkpaKAEpaKKAEpaKKACiiigBKWiigBKKWigAooooAKSlooAKKKKACiiigAooooAKKKKACiiigAoooNABRRRQAUUUUAFFFFABRRRQAUUUUAFFFFABRRRQAUUUUAFFFJQAtFFFABRRRQAUUUUAFFFFABRSUtABRRRQAUUUUAFFFFABRRRQAUUUUAFFJS0AFFFFABRRRQAUUUUAFFFFABRRRQAUUUUAFFFFABRRRQAUUUUAFFFFABRRRQAUUUUAFFFFABRRRQAUUUUAFFJS0AFFFFABRRRQAUUUUAFFFFABRRSUALRRRQAUUUUAFFFFABRRRQAUUUUAFFFFABRRRQAUUUUAFFFFABRRRQAUUUUAFFFFABRRRQAUUUUAFFFFABRRRQAUUUUAFFFFABRRRQAUUUUAFFFFABRRRQAUUUUAFFFFABRRRQAUUUUAFFFFABRRRQAUUUUAFFFFABRRRQAUUUUAFFFFABRRRQAUUUUAFFFFABRRRQAUUUUAFFFFABRRRQAUUUUAFFFFABRRRQAUUUUAFFFFABRRRQAUUUUAFFFFABRRRQAUUUUAFFFFABRRRQAUUUUAFFFFABRRRQAUUUUAFFFFABRRRQAUUUUAFFFFABRRRQAUUUUAFFFFABRRRQAUUUUAFFFFABRRRQAUUUUAFFFFABRRRQAUUUUAFFFFABRRRQAUUUUAFFFFABRRRQAUUUUAFFFFABRRRQAUUUUAFFFFABRRRQAUUUUAFFFFABRRRQAUUUUAFFFFABRRRQAUUUUAFFFFABRRRQAUUUUAFFFFABRRRQAUUUUAFFFFABRRRQAUUUUAFFFFABRRRQAUUUUAFFFFABRRRQAUUUUAFFFFABRRRQAUUUUAFFFFABRRRQAUUUUAFFFFABRRRQAUUUUAFFFFABRRRQAUUUUAFFFFABRRRQAUUUUAFFFFABRRRQAUUUUAFFFFABRRRQAUUUUAFFFFABRRRQAUUUUAFFFFABRRRQAUUUUAFFFFABRRRQAUUUUAFFFFABRRRQAUUUUAFFFFABRRRQAUUUUAFFFFABRRRQAUUUUAFFFFABRRRQAUUUUAFFFFABRRRQAUUUUAFFFFABRRRQAUUUUAFFFFABRRRQAUUUUAFFFFABRRRQAUUUUAFFFFABRRRQAUUUUAFFFFABRRRQAUUUUAFFFFABRRRQAUUUUAFFFFABRRRQAUUUUAFFFFABRRRQAUUUUAFFFFABRRRQAUUUUAFFFFABRRRQAUUUUAFFFFABRRRQAUUUUAFFFFABRRRQAUUUUAFFFFABRRRQAUUUUAFFFFABRRRQAUUUUAFFFFABRRRQAUUUUAFFFFABRRRQAUUUUAFFFFABRRRQAUUUUAFFFFABRRRQAUUUUAFFFFABRRRQAUUUUAFFFFABRRRQAUUUUAFFFFABRRRQAUUUUAFFFFABRRRQAUUUUAFFFFABRRRQAUUUUAFFFFABRRRQAUUUUAFFFFABRRRQAUUUUAFFFFABRRRQAUUUUAFFFFABRRRQAUUUUAFFFFABRRRQAUUUUAFFFFABRRRQAUUUUAFFFFABRRRQAUUUUAFFFFABRRRQAUUUUAFFFFABRRRQAUUUUAFFFFABRRRQAUUUUAFFFFABRRRQAUUUUAFFFFABRRRQAUUUUAFFFFABRRRQAUUUUAFFFFABRRRQAUUUUAFFFFABRRRQAUUUUAFFFFABRRRQAUUUUAFFFFABRRRQAUUUUAFFFFABRRRQAUUUUAFFFFABRRRQAUUUUAFFFFABRRRQAUUUUAFFFFABRRRQAUUUUAFFFFABRRRQAUUUUAFFFFABRRRQAUUUUAFFFFABRRRQAUUUUAFFFFABRRRQAUUUUAFFFFABRRRQAUUUUAFFFFABRRRQAUUUUAFFFFABRRRQAUUUUAFFFFABRRRQAUUUUAFFFFABRRRQAUUUUAFFFFABRRRQAUUUUAFFFFABRRRQAUUUUAFFFFABRRRQAUUUUAFFFFABRRRQAUUUUAFFFFABRRRQAUUUUAFFFFABRRRQAUUUUAFFFFABRRRQAUUUUAFFFFABRRRQAUUUUAFFFFABRRRQAUUUUAFFFFABRRRQAUUUUAFFFFABRRRQAUUUUAFFFFABRRRQAUUUUAFFFFABRRRQAUUUUAFFFFABRRRQAUUUUAFFFFABRRRQAUUUUAFFFFABRRRQAUUUUAFFFFABRRRQAUUUUAFFFFABRRRQAUUUUAFFFFABRRRQAUUUUAFFFFABRRRQAUUUUAFFFFABRRRQAUUUUAFFFFABRRRQAUUUUAFFFFABRRRQAUUUUAFFFFABRRRQAUUUUAFFFFABRRRQAUUUUAFFFFABRRRQAUUUUAFFFFABRRRQAUUUUAFFFFABRRRQAUUUUAFFFFABRRRQAUUUUAFFFFABRRQaACiiigAooFFABRSGloAKKKKACiiigAooooAKKKKACigdKKACiiigAooNJQAtFFFABRRRQAUUUUAFFFJQAtFIaWgAooooAKKKKACig0lAC0UlFAC0UgpaACiiigAoooNABRSUtABRSCigBaKKKACiiigAooNJQAtFJRQAtFAooAKKKKACiiigAopKKAFoooFABRRRQAUUUUAFFFFABRRRQAUUUUAFFFFABRRRQAUUUUAFFFFABRRRQAUUUUAFFFFABRRRQAUUUUAFFFFABRRRQAUUUUAFFFFABRRRQAUUUUAf/2Q==;sketch=1;hachureGap=4;jiggle=2;curveFitting=1;fontFamily=Architects Daughter;fontSource=https%3A%2F%2Ffonts.googleapis.com%2Fcss%3Ffamily%3DArchitects%2BDaughter;fontSize=20;" vertex="1" parent="Ky8GXkK56ikTTdRDj4KF-7">
          <mxGeometry x="105" y="80" width="60" height="40" as="geometry" />
        </mxCell>
        <mxCell id="Ky8GXkK56ikTTdRDj4KF-8" value="" style="image;aspect=fixed;html=1;points=[];align=center;fontSize=12;image=img/lib/azure2/networking/Virtual_Networks.svg;sketch=1;hachureGap=4;jiggle=2;curveFitting=1;fontFamily=Architects Daughter;fontSource=https%3A%2F%2Ffonts.googleapis.com%2Fcss%3Ffamily%3DArchitects%2BDaughter;" vertex="1" parent="1">
          <mxGeometry x="80" y="450" width="33.5" height="20" as="geometry" />
        </mxCell>
      </root>
    </mxGraphModel>
  </diagram>
</mxfile>
